Copiá y pegá esto completo, desde <?xml hasta el </svg> final:

<?xml version="1.0" encoding="UTF-8"?>
<svg xmlns="http://www.w3.org/2000/svg" xmlns:xlink="http://www.w3.org/1999/xlink" viewBox="0 0 5669.31 4251.98">
  <defs>
    <style>
      .cls-1 {
        fill: #bac7ca;
      }

      .cls-2 {
        fill: #eae5d9;
      }

      .cls-3 {
        fill: #5f7b80;
      }

      .cls-4 {
        fill: #2d3d4f;
      }

      .cls-5 {
        fill: #ae6f53;
      }

      .cls-6 {
        fill: #fefefe;
      }
    </style>
  </defs>
  <g id="_5_Imagen" data-name="5 Imagen">
    <rect class="cls-1" x="0" width="5669.31" height="4251.98"/>
  </g>
  <g id="_4_Imagen" data-name="4 Imagen">
    <path class="cls-2" d="M4625.2,2324.42l9.1,4.8h170.77s9.1-4.8,9.1-4.8h132.28l-.05,358.59,18.84,76.35,9.56,9.16v108.66c-1.56-2.12-4.18,7.65-4.27,10.18l-1.74,45.65c-.39,10.15,1.68,22.5,6.01,29.21v33.22c-9.11,5.89-13.5,19.29-14.15,32.28l-3.38,66.97-1.93,55.44-88.92,4.46-85.04,4.71-85.04,4.7-85.04,4.66-89.77,4.89-85.02,4.66-85.04,4.71-85.04,4.74-80.5,4.51-61.62,3.06-80.5,4.5-85.04,4.76-84.96,4.79-85.65,4.87-70.58,3.34-679.62,140.91-47.05,4.19-66.55,4.59-66.11,4.58-75.23,5.24-61.74,4.34-66.17,4.69-66.15,4.7-66.06,4.7-76.16,5.41-18.38,5.47h-278.74c2.4-1.22-8.1-4.77-10.38-4.77h-54.82c-2.31,0-12.82,3.55-10.38,4.77h-37.8c-26.96-15.7-68.41-6.65-117.07-11.18l-365.95-34.08c-47.74-4.45-94.88-.38-142.6.67l-162.96,3.6-52.35,4.23-56.87,4.85-60.24,5.51c-32.68,2.99-57.66,4.67-88.03-9.83l-54.72-25.18v-99.21c.65.65,3.75-3.9,4.55-5.14l.66-63.77c.03-3.1,4.91-11.7,3.33-13.41l-8.54-7.44v-14.17c6.92-3.71,9.99-17.11,9.35-28.28-.91-15.86,2.06-28.28,2.88-41.62l5.26-85.73,4.91-85.02,4.65-80.56c2.43-42.09-.06-83.25-1.19-124.97l-4.47-165.77c-1.01-37.47-2.56-72.72-2.54-111.28,0-12.02-2.13-24.5-4.64-37.3l239.15-2.43,339.07-4.82,326.94-4.58,339.22-4.85,331.63-4.6,339.23-4.85,331.62-4.6,334.53-4.84,331.62-4.58,339.29-4.8,327.47-3.48,43.8-8.34h51.97Z"/>
    <polygon class="cls-6" points="4814.18 2324.42 4805.08 2329.22 4634.31 2329.22 4625.2 2324.42 4814.18 2324.42"/>
    <path class="cls-6" d="M935.44,3245.68v-89.76l8.54,7.44c1.58,1.71-3.3,10.32-3.33,13.41l-.66,63.77c-.8,1.24-3.9,5.79-4.55,5.14Z"/>
    <path class="cls-6" d="M4974.82,2962.22c-4.33-6.72-6.4-19.06-6.01-29.21l1.74-45.65c.1-2.53,2.71-12.31,4.27-10.18v85.04Z"/>
    <path class="cls-6" d="M2149.61,3406.31h-75.59c-2.43-1.22,8.07-4.76,10.38-4.76h54.82c2.28,0,12.78,3.54,10.38,4.76Z"/>
  </g>
  <g id="_3_Imagen" data-name="3 Imagen">
    <polygon class="cls-5" points="4450.13 941.85 4521.01 946.43 4519.03 1165.49 4514.26 1627.08 4511.6 2034.81 4482.99 2040.48 4022.47 2043.39 3541.41 2048.12 3068.06 2052.73 2587.09 2057.53 2118.44 2062.12 1637.37 2066.86 1172.05 2069.96 1142.48 2073.84 1171.65 1987.68 1169.21 1447.9 1165.88 1039.84 1339.91 1037.02 1584.57 1032.18 1821.72 1027.63 2061.76 1022.75 2298.88 1018.19 2538.93 1013.31 2776.05 1008.76 3016.1 1003.88 3243.33 999.64 3342.08 994.36 3437.47 989.87 3535.77 984.96 3631.18 980.38 3729.44 975.51 3820.21 971 3923.12 966.01 4013.91 961.56 4116.82 956.57 4207.59 952.08 4305.89 947.12 4403.23 941.95 4450.13 941.85"/>
    <path class="cls-5" d="M940.16,3226.78l.7-61.18c2.6-9.08,3.26-20.65,3.86-33.21l3.17-66.23,7.67-96.06,55.38-30.34,25.97-3.44c18.85-2.49,52.59-7.47,66.29,8.95l39.05,46.83c20.85,25,35.9,50.28,45.33,81.93l17.49,58.69c-10.52,35.4-23.15,71.11-43.64,103.53-8.66,13.7-32.75,20.88-47.1,26.45l-73.64,28.62-56.51-14.94-44.02-49.6Z"/>
    <path class="cls-5" d="M4970.09,2858.28v75.59l-6.29,25.78c-4.6,23.24-15.06,33.58-34.15,42.54l-29.46,13.83-8.05-4.11c-1.77-.9-5.79,2.61-9.43,5.25l-48.67-12.29-47.74-34.84-13.32-49.31,5.32-137.42c1.15-29.7,25.11-62.52,58.93-60.93l40.72,7.22c37,6.56,80.23,76.25,86.93,113.11l5.2,15.58Z"/>
    <path class="cls-5" d="M2400.01,3401.58h-47.24l-.59-66.03,2.94-57.75,4.95-58.98,20.67-26.13,34.63-15.76,60.59,19.48c26.7,21.06,56.59,56.05,64.25,91.96l7.53,35.35,1.85,64.42-69.25,5.48-57.32,3.89-23.01,4.09Z"/>
    <path class="cls-5" d="M2817.89,3196.09l-42.06,28.29c-9.51-2.23-12.45-1.29-20.69-1.32l-37.77-.12c-5.51-.02-17.77-4.03-23.67-2.78-17.97,3.83-29.93-4.33-40.52-21.11-12.03-19.05-40.98-38.39-43.04-59.36l-4.36-85.34c-1.28-25.06,4.59-49.95,7.55-74.66,4.29-35.88,16.33-70.16,47.24-92.99l45.64-5.07c40.21,5.12,74.16,11.95,111,26.57l28.87,11.46,60.32,21.61,20.8,19.25c1.15,21.44,1.85,48.76-1.25,70.66l-6.5,45.96-50.99,69.84c-14.41,19.74-30.94,35.91-50.57,49.11Z"/>
    <path class="cls-5" d="M4097.56,2895.77l-33.6,39.59-36.99,32.08c-25.07,21.75-41.14,28.9-75.17,25.96l-65.63-5.66-62.48-60.2c-11.28-77.57-7.85-153.83,12.83-229.86l35.69-42.56,38.42-1.07,10.26,2.86c2.81.78,7.93-1.7,10.99-2.85l44.98,10.24,63.93,18.58,53.52,19.73,33.16,17.41,14.82,24.17-5.73,59.3c-3.5,36.24-14.16,63.02-38.99,92.27Z"/>
    <path class="cls-5" d="M1201.11,2654.14c-11.74,14.98-28.37,25.45-41.3,36.23-15.53,12.95-30.35,24.56-52.42,24.32l-80.42-.87c-13.72-.15-25.56-22.11-33.83-30.26l-34.1-33.6c-.13-37.49,1.06-75.46-1.62-112.89-2.88-40.25-1.98-90.2,17.35-121.82,6.18-10.1,20.17-34.58,31.87-35.38l42.05-2.9c41.22-2.85,78.3,11.8,113.37,24.31l58.21,20.77c22.55,8.05,53.88,20.42,53.28,50.22l-.62,30.9-5.39,41.54-7.06,33.72-59.37,75.72Z"/>
    <path class="cls-5" d="M3567.84,2791.39l-98.43,40.71c-16.29-.69-49.38-4.15-61.43-16.65l-47.85-49.62-26.02-33.41c-12.64-16.23-24.16-36.21-33.76-55.87-7.81-16-4.21-54.94,3.64-70.66,8.19-16.39,19.62-29.37,29.94-41.84l34.86-42.13c15.44-18.67,49.15-30.43,68.22-44.88l9.18,6.05c1.72,1.13,7.55-6.08,9.61-6.14l27.91-.81c27.83-.8,42.74,9.39,58.02,29.72l24.57,32.7,16.74,19.79c16.12,19.05,25.15,44.03,31.07,67.53l13.46,53.47-34.32,82.12c-4.64,11.11-11.39,24.13-25.42,29.93Z"/>
    <path class="cls-5" d="M2261.27,3058.11c-16.52,1.73-51.07-4.23-63.17-15.3l-27.77-25.42-20.74-25.31-21.77-26.95c-15.2-18.82-31.01-45.49-37.84-68.33-7.23-24.19-1.91-59.5,11.23-75.48l34.91-42.44c15.94-19.38,35.19-33.6,56.25-47.77,26.19-17.62,51.14-26.24,80.65-28.14,26.49-1.71,41.04,6.45,57.38,28.23l25.79,34.36,22.6,29.59c22.16,29.01,39.99,111.47,38.51,114.91l-43.44,100.45-35.93,18.74-76.66,28.87Z"/>
    <path class="cls-5" d="M4729.71,2581.61l-30.28,12.62c-31.64,13.18-56.86,4.98-86.08-16.79-12.65-8.96-23.89-19.47-33.83-32.94-24.6-33.33-56.6-64.49-67.92-104.98-12.05-43.12,10.68-88.02,43.43-114.86l235.59-.5c28.69,26.25,52.37,111.18,45.37,135.9-8.49,29.98-22.92,58.45-37.88,84.78-12.97,22.82-45.58,27.28-68.4,36.78Z"/>
    <path class="cls-5" d="M1663.66,3366.66l-111.29-10.43c-42.07-3.94-91.04-1.9-133.51-1.03l-18,3.4c-3.67.69-3.94-13.28-4.1-17.39l-1.7-44.08,2.37-52.23,11.39-66.84c4.39-25.77,28.76-59.06,42.3-62.41,30.25-7.49,56.98-1.46,85.56,2.37,20.74,2.78,38.93,9.91,59.21,16.94l71.91,24.9c24.42,8.45,53.44,25.21,50.95,54.74l-4.31,51.09c-1.56,18.49-4.89,42.46-16.14,56.8l-34.67,44.19Z"/>
    <path class="cls-5" d="M2595.17,2788.65c-16.44,5.7-31.49,13-48.27,1.55-11.67-7.96-29.81-19.2-39.3-28.63-9.51-9.46-16.54-16.15-23.86-21.68l-28.21-30.99-12-83.28c-2.27-15.77,1.34-39.26,15.39-46.32l33.38-16.76c20.76-10.42,83.53-26.55,107.03-27.43,50.51-1.89,100.87,15.73,145.84,32.93l15.45,40.61c2.84,30.69,25.66,49.58,12.56,86.45-7.94,22.34-28.09,34.03-49.29,42.93l-30.78,12.93-32.55,13.67-21.1,8.65-44.3,15.35Z"/>
    <path class="cls-5" d="M1431.14,3000.4l-45.45,16.75c-12.01,4.43-24.55,14.08-39.34,5.56l-53.01-30.54c-32.84-46.18-54.95-44.6-57.05-116.1-.47-16.14-14.05-39.89,1.37-56.4,26.53-28.4,66.14-36.94,102.71-46.73l40.79-10.92c26.79-7.17,57.99,5.6,84.49,13.24l67.92,19.58,24.03,68.91c15.2,28.51,8.69,56.91-10.93,86.14l-59.63,28.62-55.9,21.89Z"/>
    <path class="cls-5" d="M3829.31,2550.65l-40.71,13.58c-22.22,7.41-41.6-12.84-59.05-22.55-11.09-6.17-18.08-15.56-24.27-24.01-33.54-28.06-43.81-59.69-48.02-103.29l-4.59-47.62,32.9-28.29,172.85-2.02,100.67-.87c1.49,21.72,5.71,31.64,11.27,47.53l21.97,62.85-25.84,49.19-38.11,15.91-99.08,39.59Z"/>
    <path class="cls-5" d="M4486.79,2940.51c-40.77,4.76-78.33-2.31-115.34-13.21l-47.14-13.88c-3.5-1.03-12.69-.64-17.58-.28l-51.61-63.78c5.11-32.66,16.7-60.12,34.47-86.27l39.62-58.34c16.12-23.74,33.32-44.86,63.41-38.16l76.76,17.09c10.4,2.32,33.52,7.33,37.45,16.81,7.95,18.76,20.6,41.58,21.4,58.62l3.64,78.33-1.92,54.58c-.6,17.05-25.41,46.42-43.14,48.49Z"/>
    <path class="cls-5" d="M1503.16,2648.59l-52.15-14.49c-30.75-8.55-51.62-44.44-61.95-73.19l18.89-48.59c11.37-29.26,38.82-51.87,60.04-93.95,13.14-26.06,35.7-34.7,62.56-28.53l104.92,24.07c37.18,66.6,32.54,123.31,26.94,200.35-1.72,23.63-31.61,54.08-56.27,51.61l-50.38-5.06-52.6-12.2Z"/>
    <path class="cls-5" d="M3320.48,3118.19c-.98,23.29-30.99,55.63-53.66,53.32l-55.4-5.64-108.64-29.15c-24.98-6.7-43.51-43.27-54.6-63.87,7.12-50.63,38.36-88.13,65.59-129.16,12.2-18.38,23.1-49.84,47.58-49.3l26.76.59,108.21,25.25,21.73,63.88c7.73,22.72,5.66,56.74,4.62,81.54l-2.2,52.52Z"/>
    <path class="cls-5" d="M2012.11,3393.99l-61.76-9.08-68.04-17.11-33.67-38.13c-35.26-39.94,17.3-100.55,38.13-133.93l29.05-46.53c14.01-22.44,37.5-30.02,62.96-23.59l103.31,26.08,16.92,39.64c16.45,55.89,11.86,113.48,7.66,170.76l-27.5,32.15c-21.22,3.84-44.74,3.03-67.06-.25Z"/>
    <path class="cls-5" d="M2054.5,2730.18c-30.38,11.9-78.9,3.88-100.27-10.97-31.75-22.06-50.34-50.83-48.14-90.51l4.25-76.83,2.21-48.41c1.08-23.65,14.68-41.13,34.3-50.73,11.36-9.41,20.62-9.46,35.28-6.17,22.53,5.06,50.55,6.4,64.83,27.63l34.37,51.11c26.07,38.77,27.1,90.79,20.49,137.96-4.49,32.06-12.32,53.22-47.31,66.92Z"/>
    <path class="cls-5" d="M3755.91,3174.12l-6.33,36.54c-40.74,2.37-78.26,10.24-123.46,21.01-18.33-4.82-42-22.56-54.29-40.87-11.25-16.75-9.13-44.11-8.39-65.31l3.44-98.46c1.34-38.26,21.08-73.68,63.66-76.03,42.54,10.79,64.99,9.19,90.02,53.3l11.37,20.03c28.55,50.29,33.95,92.3,23.98,149.78Z"/>
    <path class="cls-5" d="M3149.67,2721.72c-2.06,14.29-29.58,35.49-44.08,35.21-24.48-.47-50.27.34-72.55-5.47-51.49-13.42-83.69-60.07-103.26-106.75-9.31-22.2-17.88-39.23-9.27-60.91,7.6-19.12,20.31-37.44,44-45.11l60.66-19.63,24.4,7.38,39.26,26.25,25.99,16.47c16.13,37.05,30.19,77.64,40.04,116.53l-5.19,36.01Z"/>
    <path class="cls-5" d="M1832.35,2981.51l-30.11-3.48-40.14-35.36-24.18-26.06c-2.52-11.38-2.83-23.78-15.98-27.73l-11.63-40.98c-4.83-17.02-3.32-41.7,7.31-51.92l26.88-25.81,77.44-22.91,39.05,20.89c15.24,17.81,30.49,28.51,50.67,36.27-3.32,38.67,29.58,63.03,32.56,107.87l-4.96,31.29c-3.84,24.2-42.26,56.21-80.54,40.99l-26.37-3.05Z"/>
    <path class="cls-5" d="M4351.47,3178.22l-85.06,4.7-76.18,4.21-84.44,4.07-3.49-36.8c-1.65-17.45-9.83-43.67,3.61-59.78,22.75-27.27,136.64-62.65,181.7-52.45l49.37,11.18,35.55,10.32,28.45,10.39,15.75,48.59,19.15,51.08-84.43,4.48Z"/>
    <path class="cls-5" d="M4361.31,2476.71c-1.78,9.8-2.34,22.5-8.49,27.95-10.61,9.41-26.56,24.57-37.16,24.01l-44.91-2.34c-55.35-2.89-98.03-44.79-122.51-93.2-16.37-32.38-29.51-66.13-8.38-98.71l74.35-4,80.62-.7,29.45,7.81,21.25,54.95,14.7,37.13c6.32,15.98,4.19,30.1,1.09,47.09Z"/>
    <path class="cls-5" d="M2292.96,2486.5l-33.85-2.44-34.88-2.52-57.84-66.92-2.58-51.33,37.93-5.44,262.44-.18-29.66,40.82-43.63,47.61-18.02,11.02c-20.36,26.44-46.22,34.21-79.9,29.4Z"/>
    <path class="cls-5" d="M3240.97,2508.76c-51.98,1.39-78.5-16.24-112.77-52.68-6.19-6.58-9.32-23.51-9.24-34.08l.54-73.47,81.47-3.1,101.02-2c7.64,3.46,15.63,21.53,14.71,29.6l-10.24,89.83c-1.08,9.51-3.84,18.68-12.02,23.62-16.99,10.26-36.33,21.82-53.47,22.28Z"/>
    <path class="cls-5" d="M4723.22,3157.74l-79.37,4.52-54.56,3.31-12.98-39.97c-11.56-35.6,9.62-66.23,40.53-78.34l24.27-9.51c14.2-5.56,43.47-16.45,56.98-7.56l52.56,34.57c16.2,10.65,24.87,22.41,32.32,42.22l17.96,47.78-77.71,2.99Z"/>
    <path class="cls-5" d="M3030.84,3354.01l-77.93,6.41-62.29,4.05c-3.09-11.29-4.8-27.81-.17-35.58,6.97-11.68,48.17-34.37,64.75-38.47l87.77-21.72c12.59-.97,35.32,1.5,49.14,5.13l36.71,9.65,53.14,16.24c5.15,1.57,11.48,15.66,12.11,21.47l-163.24,32.83Z"/>
    <path class="cls-5" d="M2831.21,2435.91c-61.7-3.32-121.93-17.16-181.33-35.09l-38.14-47.95,241.63-.19,22.1-5.17c9.8,38.89-7.22,67.32-44.26,88.4Z"/>
  </g>
  <g id="_2_Imagen" data-name="2 Imagen">
    <path class="cls-3" d="M595.28,2451.97h-51.97l-.23-47.34c-.05-6.07-5.87-20.34-9.22-23.53v-14.17l4.8-9.1v-170.77s-4.8-9.1-4.8-9.1v-222.05l1584.12,1.67,198.72,5.81,150.98,2.29,102.18,429.04-46.85,3.78-103.75,5.07-89.85,4.51-89.73,4.61-78.08,3.99-90.44,4.48-98.62,5.2-183.89,4.45-176.37,4.01-49.71.02-199.75-4.19-413.11-1.07-80.6,4.85-85.17,4.71-85.03,4.7-75.54,4.17-28.11,3.97Z"/>
    <path class="cls-3" d="M3902.37,1913.39c-1.91,1.64,7.42,3.95,9.79,4.06l46.66,2.13,81.68,3.19c8.51,2.09,20.44,3.9,31.59,4.5l66.43,3.58,94.36,5.32,75.45,4.21,85.21,4.71,80.93,5.36,716.01.77,6.39,18.88v9.45l-4.74,5.16v372.36s4.74,5.16,4.74,5.16v42.52l-125.58-2.46-471.94-4.69-240.49-4.67-180.54-4.48-189.03-5.1-555.01-2.47-85.2-438.58,61.99-3.84,89.47-4.83,85-4.59,78.12-3.92,98.98-4.76,101.96-6.94h37.8Z"/>
  </g>
  <g id="_1_Imagen" data-name="1 Imagen">
    <path class="cls-4" d="M3023.63,444.1l97.54,515.91,61.84,251.42,150.67,557.53,124.35,683.23,170.28,967.52,27.9,199.66,5.22,8.99v28.35l-822.05,155.91h-18.9l-48.88-292.08-129.95-676.74-70.69-394.03-272.53-1208.54-49.4-268.91-66.41-258.43-37.16-156.25c-2.34-9.83-5.59-21.2-10.02-28.5v-9.45c20.81.99,42.16.31,65.55-1.82l525.84-47.96,75.22-9.28,76.01-7.12,46.25-3.77c14.17-1.16,27.36-2.47,37.9-5.64h61.42Z"/>
  </g>
</svg>
